#N canvas 265 133 584 298 12;
#X declare -path ../lib;
#X declare -path ../abstractions;
#X obj 103 23 declare -path ../lib;
#X obj 103 48 declare -path ../abstractions;
#X obj 116 122 net_in \$0 9191 netIn;
#X obj 97 173 r \$0-netIn;
#X obj 97 198 print;
#X floatatom 354 132 5 0 0 0 - - -;
#X obj 345 236 s \$0-netOut;
#X msg 345 211 send message to shell \$1 \;;
#X msg 414 173 send message;
#X obj 299 71 net_out \$0 9119 netOut;
#X floatatom 299 127 5 0 0 0 - - -;
#X msg 299 151 send chicken \$1;
#X connect 3 0 4 0;
#X connect 5 0 7 0;
#X connect 7 0 6 0;
#X connect 8 0 6 0;
#X connect 10 0 11 0;
#X connect 11 0 6 0;
