#N canvas 171 103 450 300 12;
#X obj 118 183 netreceive;
#X obj 134 25 loadbang;
#X obj 131 78 f \$2;
#X msg 209 111 listen 0;
#X msg 121 111 listen \$1;
#X obj 134 50 t b b;
#X obj 118 208 s \$1-\$3;
#X connect 0 0 6 0;
#X connect 1 0 5 0;
#X connect 2 0 4 0;
#X connect 3 0 0 0;
#X connect 4 0 0 0;
#X connect 5 0 2 0;
#X connect 5 1 3 0;
