#N canvas 382 245 450 300 12;
#X obj 183 60 t b b;
#X obj 183 85 f \$2;
#X msg 342 110 disconnect;
#X obj 184 226 netsend;
#X msg 183 110 connect localhost \$1;
#X obj 210 190 r \$1-\$3;
#X obj 278 11 loadbang;
#X obj 278 36 del 100;
#X connect 0 0 1 0;
#X connect 0 1 2 0;
#X connect 1 0 4 0;
#X connect 2 0 3 0;
#X connect 4 0 3 0;
#X connect 5 0 3 0;
#X connect 6 0 7 0;
#X connect 7 0 0 0;
