#N canvas 382 245 450 300 12;
#X obj 183 60 t b b;
#X obj 183 85 f \$2;
#X msg 342 110 disconnect;
#X obj 150 255 netsend;
#X obj 199 184 r \$1-\$3;
#X obj 278 11 loadbang;
#X obj 278 36 del 100;
#X obj 372 26 bng 15 250 50 0 empty empty empty 17 7 0 10 -262144 -1
-1;
#X msg 183 110 connect localhost \$1;
#X connect 0 0 1 0;
#X connect 0 1 2 0;
#X connect 1 0 8 0;
#X connect 2 0 3 0;
#X connect 4 0 3 0;
#X connect 5 0 6 0;
#X connect 6 0 0 0;
#X connect 7 0 6 0;
#X connect 8 0 3 0;
